<?xml version="1.0" encoding="UTF-8"?><svg id="b" xmlns="http://www.w3.org/2000/svg" viewBox="0 0 1535.8 354.7"><g id="c"><ellipse cx="47.2" cy="142.4" rx="47.2" ry="15.5" style="fill:#000; stroke-width:0px;"/></g><g id="d"><ellipse cx="65.4" cy="86.5" rx="15.5" ry="47.2" transform="translate(-43 88.5) rotate(-54)" style="fill:#000; stroke-width:0px;"/></g><g id="e"><ellipse cx="113" cy="51.9" rx="15.5" ry="47.2" transform="translate(-10.5 37.5) rotate(-18)" style="fill:#000; stroke-width:0px;"/></g><g id="f"><ellipse cx="171.8" cy="51.8" rx="47.2" ry="15.5" transform="translate(69.4 199.2) rotate(-72)" style="fill:#000; stroke-width:0px;"/></g><g id="g"><ellipse cx="219.4" cy="86.4" rx="47.2" ry="15.5" transform="translate(-8.9 145.5) rotate(-36)" style="fill:#000; stroke-width:0px;"/></g><g id="h"><ellipse cx="237.6" cy="142.4" rx="47.2" ry="15.5" style="fill:#000; stroke-width:0px;"/></g><g id="i"><ellipse cx="219.4" cy="198.4" rx="15.5" ry="47.2" transform="translate(-70 259.3) rotate(-54)" style="fill:#000; stroke-width:0px;"/></g><g id="j"><ellipse cx="171.8" cy="232.9" rx="15.5" ry="47.2" transform="translate(-63.6 64.5) rotate(-18)" style="fill:#000; stroke-width:0px;"/></g><g id="k"><ellipse cx="113" cy="233" rx="47.2" ry="15.5" transform="translate(-143.5 268.5) rotate(-72)" style="fill:#000; stroke-width:0px;"/></g><g id="l"><ellipse cx="65.4" cy="198.4" rx="47.2" ry="15.5" transform="translate(-104.1 76.3) rotate(-36)" style="fill:#000; stroke-width:0px;"/></g><text transform="translate(286.9 219.8)" style="fill:#000; font-family:Poppins-SemiBoldItalic, Poppins; font-size:227.5px; font-style:italic; font-weight:600;"><tspan x="0" y="0" style="letter-spacing:0em;">W</tspan><tspan x="224.1" y="0" style="letter-spacing:0em;">eb</tspan><tspan x="518.7" y="0" style="letter-spacing:0em;">F</tspan><tspan x="629.7" y="0">utu</tspan><tspan x="1018.7" y="0" style="letter-spacing:0em;">r</tspan><tspan x="1108.6" y="0" style="letter-spacing:0em;">e</tspan></text></svg>