<?xml version="1.0" encoding="UTF-8"?><svg id="b" xmlns="http://www.w3.org/2000/svg" viewBox="0 0 1480.7 362.1"><g id="c"><ellipse cx="53.7" cy="162.1" rx="53.7" ry="17.6" style="fill:#000; stroke-width:0px;"/></g><g id="d"><ellipse cx="74.4" cy="98.4" rx="17.6" ry="53.7" transform="translate(-48.9 100.8) rotate(-54)" style="fill:#000; stroke-width:0px;"/></g><g id="e"><ellipse cx="128.6" cy="59" rx="17.6" ry="53.7" transform="translate(-11.9 42.6) rotate(-18)" style="fill:#000; stroke-width:0px;"/></g><g id="f"><ellipse cx="195.6" cy="59" rx="53.7" ry="17.6" transform="translate(79 226.8) rotate(-72)" style="fill:#000; stroke-width:0px;"/></g><g id="g"><ellipse cx="249.8" cy="98.4" rx="53.7" ry="17.6" transform="translate(-10.1 165.6) rotate(-36)" style="fill:#000; stroke-width:0px;"/></g><g id="h"><ellipse cx="270.5" cy="162.1" rx="53.7" ry="17.6" style="fill:#000; stroke-width:0px;"/></g><g id="i"><ellipse cx="249.8" cy="225.8" rx="17.6" ry="53.7" transform="translate(-79.7 295.2) rotate(-54)" style="fill:#000; stroke-width:0px;"/></g><g id="j"><ellipse cx="195.6" cy="265.2" rx="17.6" ry="53.7" transform="translate(-72.4 73.5) rotate(-18)" style="fill:#000; stroke-width:0px;"/></g><g id="k"><ellipse cx="128.6" cy="265.2" rx="53.7" ry="17.6" transform="translate(-163.3 305.6) rotate(-72)" style="fill:#000; stroke-width:0px;"/></g><g id="l"><ellipse cx="74.4" cy="225.8" rx="53.7" ry="17.6" transform="translate(-118.5 86.9) rotate(-36)" style="fill:#000; stroke-width:0px;"/></g><text transform="translate(316.6 238.3)" style="fill:#000; font-family:Poppins-SemiBoldItalic, Poppins; font-size:208.6px; font-style:italic; font-weight:600;"><tspan x="0" y="0">WebFuture</tspan></text></svg>