<?xml version="1.0" encoding="UTF-8"?><svg id="b" xmlns="http://www.w3.org/2000/svg" viewBox="0 0 1395.5 301.1"><g id="c"><ellipse cx="37.1" cy="112.2" rx="37.1" ry="12.1" style="fill:#000; stroke-width:0px;"/></g><g id="d"><ellipse cx="51.4" cy="68.2" rx="12.1" ry="37.1" transform="translate(-34 69.7) rotate(-54)" style="fill:#000; stroke-width:0px;"/></g><g id="e"><ellipse cx="88.8" cy="41" rx="12.1" ry="37.1" transform="translate(-8.3 29.5) rotate(-18)" style="fill:#000; stroke-width:0px;"/></g><g id="f"><ellipse cx="135" cy="41" rx="37.1" ry="12.1" transform="translate(54.3 156.8) rotate(-72)" style="fill:#000; stroke-width:0px;"/></g><g id="g"><ellipse cx="172.4" cy="68.2" rx="37.1" ry="12.1" transform="translate(-7.1 114.4) rotate(-36)" style="fill:#000; stroke-width:0px;"/></g><g id="h"><ellipse cx="186.7" cy="112.2" rx="37.1" ry="12.1" style="fill:#000; stroke-width:0px;"/></g><g id="i"><ellipse cx="172.4" cy="156.1" rx="12.1" ry="37.1" transform="translate(-55.2 203.9) rotate(-54)" style="fill:#000; stroke-width:0px;"/></g><g id="j"><ellipse cx="135" cy="183.3" rx="12.1" ry="37.1" transform="translate(-50.1 50.7) rotate(-18)" style="fill:#000; stroke-width:0px;"/></g><g id="k"><ellipse cx="88.8" cy="183.3" rx="37.1" ry="12.1" transform="translate(-113 211.2) rotate(-72)" style="fill:#000; stroke-width:0px;"/></g><g id="l"><ellipse cx="51.4" cy="156.2" rx="37.1" ry="12.1" transform="translate(-82 60) rotate(-36)" style="fill:#000; stroke-width:0px;"/></g><text transform="translate(231.4 177.4)" style="fill:#000; font-family:Poppins-SemiBoldItalic, Poppins; font-size:208.6px; font-style:italic; font-weight:600;"><tspan x="0" y="0">WebFuture</tspan></text></svg>