<?xml version="1.0" encoding="UTF-8"?><svg id="a" xmlns="http://www.w3.org/2000/svg" viewBox="0 0 1529.5 271.5"><g id="b"><ellipse cx="47.2" cy="135.7" rx="47.2" ry="15.5" style="fill:#000; stroke-width:0px;"/></g><g id="c"><ellipse cx="65.4" cy="79.8" rx="15.5" ry="47.2" transform="translate(-37.6 85.8) rotate(-54)" style="fill:#000; stroke-width:0px;"/></g><g id="d"><ellipse cx="113" cy="45.3" rx="15.5" ry="47.2" transform="translate(-8.5 37.1) rotate(-18)" style="fill:#000; stroke-width:0px;"/></g><g id="e"><ellipse cx="171.8" cy="45.1" rx="47.2" ry="15.5" transform="translate(75.7 194.5) rotate(-72)" style="fill:#000; stroke-width:0px;"/></g><g id="f"><ellipse cx="219.4" cy="79.8" rx="47.2" ry="15.5" transform="translate(-5 144.2) rotate(-36)" style="fill:#000; stroke-width:0px;"/></g><g id="g"><ellipse cx="237.6" cy="135.7" rx="47.2" ry="15.5" style="fill:#000; stroke-width:0px;"/></g><g id="h"><ellipse cx="219.5" cy="191.8" rx="15.5" ry="47.2" transform="translate(-64.7 256.6) rotate(-54)" style="fill:#000; stroke-width:0px;"/></g><g id="i"><ellipse cx="171.8" cy="226.2" rx="15.5" ry="47.2" transform="translate(-61.5 64.2) rotate(-18)" style="fill:#000; stroke-width:0px;"/></g><g id="j"><ellipse cx="113" cy="226.4" rx="47.2" ry="15.5" transform="translate(-137.2 263.9) rotate(-72)" style="fill:#000; stroke-width:0px;"/></g><g id="k"><ellipse cx="65.4" cy="191.7" rx="47.2" ry="15.5" transform="translate(-100.2 75.1) rotate(-36)" style="fill:#000; stroke-width:0px;"/></g><g style="isolation:isolate;"><g style="isolation:isolate;"><path d="M531.2,54.3l-72.6,158.8h-37.5l-9.8-113.1-51,113.1-37.3.2-14.8-159h34.1l6.4,123.3,53.9-123.3h35.5l8.6,122.6,50-122.6h34.4Z" style="fill:#000; stroke-width:0px;"/></g><g style="isolation:isolate;"><path d="M630.9,98.4c9.4,8.9,14.1,20.8,14.1,35.8s-.4,9.2-1.1,13c-.9,4.5-1.9,8.5-3,11.8h-92.1c-.2,1.1-.2,2.6-.2,4.5,0,7.9,2.3,14.1,6.9,18.5,4.6,4.5,10.7,6.7,18.3,6.7s11.9-1.4,16.5-4.2c4.6-2.8,8.4-6.5,11.3-11h34.4c-5.6,12.1-14.3,22.1-26,29.9-11.8,7.8-25.1,11.7-39.9,11.7s-29-4.6-38.7-13.7c-9.7-9.1-14.6-21.5-14.6-37.1s.5-9.3,1.4-14.3c2.3-13,6.9-24.5,14-34.4,7.1-9.9,15.8-17.4,26.3-22.8,10.5-5.3,21.9-8,34.4-8s28.8,4.4,38.2,13.3ZM612.7,134.4c0-7.3-2.4-13-7.1-17.1-4.7-4.1-10.8-6.1-18.4-6.1s-15.2,2.5-21.6,7.6c-6.4,5.1-10.8,12-13.4,20.8h60.1c.3-2.4.5-4.2.5-5.2Z" style="fill:#000; stroke-width:0px;"/><path d="M725.8,90.7c7.9-3.8,16.5-5.7,25.7-5.7s17.7,2,24.9,6c7.2,4,12.8,9.8,16.7,17.4,3.9,7.6,5.9,16.5,5.9,26.6s-.5,9.6-1.4,14.6c-2.3,12.9-6.8,24.3-13.7,34.2-6.8,9.9-15.1,17.6-24.8,23.1-9.7,5.5-19.9,8.2-30.5,8.2s-17.4-1.9-23.9-5.6c-6.5-3.7-11.3-8.5-14.3-14.4l-3.2,18h-32.1l29.8-168.3h32.1l-10.7,60.7c5-6.1,11.4-11,19.3-14.8ZM765.8,141.5c0-8.9-2.6-15.9-7.7-20.9-5.2-5-11.8-7.5-19.8-7.5s-11.5,1.5-17.1,4.4c-5.6,3-10.5,7.2-14.6,12.9-4.1,5.6-6.8,12.2-8.2,19.8-.6,3.9-.9,6.8-.9,8.6,0,9,2.6,15.9,7.8,20.9s11.8,7.5,19.7,7.5,11.7-1.5,17.3-4.6c5.6-3,10.5-7.4,14.6-13,4.1-5.6,6.8-12.3,8.2-20,.5-3,.7-5.8.7-8.2Z" style="fill:#000; stroke-width:0px;"/></g><g style="isolation:isolate;"><path d="M935.7,54.3l-4.5,25h-66l-7.3,41.6h50.5l-4.3,24.6h-50.7l-11.8,67.6h-32.1l28.2-158.8h98.1Z" style="fill:#000; stroke-width:0px;"/></g><g style="isolation:isolate;"><path d="M1061.7,87.1l-22.3,126h-31.9l2.7-15.9c-4.9,5.5-10.8,9.7-18,12.9-7.1,3.1-14.6,4.7-22.5,4.7-13,0-23.4-3.5-30.9-10.6-7.6-7.1-11.4-17.1-11.4-30.1s.4-9.2,1.1-13l13-73.9h31.8l-12.3,69.4c-.5,2.7-.7,5.4-.7,8,0,7.4,2,13.2,6.1,17.2,4.1,4,9.9,6,17.3,6s16-2.7,22.1-8.1c6.1-5.4,9.9-13.1,11.6-23.1l12.3-69.4h31.9Z" style="fill:#000; stroke-width:0px;"/><path d="M1115,174.2c-.2.9-.2,2.1-.2,3.6,0,3,.9,5.2,2.6,6.5,1.7,1.3,4.7,1.9,8.8,1.9h15l-4.8,26.8h-20.2c-22.8,0-34.1-9.5-34.1-28.4s.3-7.2.9-10.7l10.7-60.7h-15l4.5-26.2h15.2l5.5-31.2h32.1l-5.5,31.2h28l-4.6,26.2h-28.2l-10.7,61Z" style="fill:#000; stroke-width:0px;"/><path d="M1300.4,87.1l-22.3,126h-31.8l2.7-15.9c-4.9,5.5-10.8,9.7-18,12.9-7.1,3.1-14.6,4.7-22.5,4.7-13,0-23.4-3.5-30.9-10.6-7.6-7.1-11.4-17.1-11.4-30.1s.4-9.2,1.1-13l13-73.9h31.9l-12.3,69.4c-.5,2.7-.7,5.4-.7,8,0,7.4,2,13.2,6.1,17.2,4.1,4,9.9,6,17.3,6s16-2.7,22.1-8.1c6.1-5.4,9.9-13.1,11.6-23.1l12.3-69.4h31.8Z" style="fill:#000; stroke-width:0px;"/></g><g style="isolation:isolate;"><path d="M1379.1,91.6c7.3-4.2,15.2-6.4,23.7-6.4l-5.9,33.4h-8.4c-9.4,0-16.9,2-22.6,6.1-5.7,4.1-9.8,11.1-12.4,20.9l-11.8,67.3h-32.1l22.3-126h32.1l-3.9,22.3c5.5-7.6,11.8-13.5,19.1-17.7Z" style="fill:#000; stroke-width:0px;"/></g><g style="isolation:isolate;"><path d="M1515.4,98.4c9.4,8.9,14.1,20.8,14.1,35.8s-.4,9.2-1.1,13c-.9,4.5-1.9,8.5-3,11.8h-92.1c-.2,1.1-.2,2.6-.2,4.5,0,7.9,2.3,14.1,6.9,18.5,4.6,4.5,10.7,6.7,18.3,6.7s11.9-1.4,16.5-4.2c4.6-2.8,8.4-6.5,11.3-11h34.4c-5.6,12.1-14.3,22.1-26,29.9-11.8,7.8-25.1,11.7-39.9,11.7s-29-4.6-38.7-13.7c-9.7-9.1-14.6-21.5-14.6-37.1s.5-9.3,1.4-14.3c2.3-13,6.9-24.5,14-34.4,7.1-9.9,15.8-17.4,26.3-22.8,10.5-5.3,21.9-8,34.4-8s28.8,4.4,38.2,13.3ZM1497.2,134.4c0-7.3-2.4-13-7.1-17.1-4.7-4.1-10.8-6.1-18.4-6.1s-15.2,2.5-21.6,7.6c-6.4,5.1-10.8,12-13.4,20.8h60.1c.3-2.4.5-4.2.5-5.2Z" style="fill:#000; stroke-width:0px;"/></g></g></svg>